<?xml version="1.0" encoding="UTF-8" standalone="no"?>
<!-- Generator: Adobe Illustrator 17.1.0, SVG Export Plug-In . SVG Version: 6.00 Build 0)  -->

<svg
   xmlns:dc="http://purl.org/dc/elements/1.1/"
   xmlns:cc="http://creativecommons.org/ns#"
   xmlns:rdf="http://www.w3.org/1999/02/22-rdf-syntax-ns#"
   xmlns:svg="http://www.w3.org/2000/svg"
   xmlns="http://www.w3.org/2000/svg"
   xmlns:sodipodi="http://sodipodi.sourceforge.net/DTD/sodipodi-0.dtd"
   xmlns:inkscape="http://www.inkscape.org/namespaces/inkscape"
   version="1.1"
   id="Livello_1"
   x="0px"
   y="0px"
   viewBox="0 0 304 44"
   enable-background="new 0 0 1024 768"
   xml:space="preserve"
   inkscape:version="0.48.4 r9939"
   width="100%"
   height="100%"
   sodipodi:docname="baulist_logo_tiny.svg"><metadata
     id="metadata79"><rdf:RDF><cc:Work
         rdf:about=""><dc:format>image/svg+xml</dc:format><dc:type
           rdf:resource="http://purl.org/dc/dcmitype/StillImage" /><dc:title /></cc:Work></rdf:RDF></metadata><defs
     id="defs77" /><sodipodi:namedview
     pagecolor="#ffffff"
     bordercolor="#666666"
     borderopacity="1"
     objecttolerance="10"
     gridtolerance="10"
     guidetolerance="10"
     inkscape:pageopacity="0"
     inkscape:pageshadow="2"
     inkscape:window-width="1855"
     inkscape:window-height="1056"
     id="namedview75"
     showgrid="false"
     fit-margin-top="1"
     fit-margin-right="1"
     fit-margin-bottom="1"
     fit-margin-left="1"
     inkscape:zoom="0.80654367"
     inkscape:cx="62.272922"
     inkscape:cy="17.635576"
     inkscape:window-x="65"
     inkscape:window-y="24"
     inkscape:window-maximized="1"
     inkscape:current-layer="Livello_1" /><g
     id="g3"
     transform="translate(-360,-361.95)"><g
       id="g5"><polygon
         points="638.2,375.1 638.2,388.2 642.6,388.2 642.6,364.7 626.7,364.7 626.7,375.1 "
         id="polygon7" /><polygon
         points="650.5,403.6 650.5,391.6 648.5,391.6 644.4,396.8 640.3,391.6 638.2,391.6 638.2,403.6 "
         id="polygon9" /><polygon
         points="662,364.7 646.2,364.7 646.2,388.2 650.5,388.2 650.5,375.1 662,375.1 "
         id="polygon11" /></g><path
       d="m 563.7,403.3 h -5.6 c -1.9,0 -3.4,-1.5 -3.4,-3.4 v -32.2 c 0,-1.9 1.5,-3.4 3.4,-3.4 h 5.6 c 1.9,0 3.4,1.5 3.4,3.4 v 32.2 c 0,1.9 -1.5,3.4 -3.4,3.4 z"
       id="path13"
       inkscape:connector-curvature="0" /><g
       id="g15"><polygon
         points="425.1,397.7 425.1,364.4 422.5,364.4 407.8,403.3 419.9,403.3 421.9,397.7 "
         id="polygon17" /><polygon
         points="450,403.3 435.3,364.4 432.7,364.4 432.7,397.7 435.6,397.7 437.6,403.3 "
         id="polygon19" /></g><path
       d="m 489,364.4 c -1.9,2.2 -4.7,3.6 -7.8,3.6 -3.1,0 -5.9,-1.4 -7.8,-3.6 h -10 v 22.8 c 0,10.7 6.9,16.7 17.8,16.7 10.9,0 17.8,-6 17.8,-16.7 v -22.8 h -10 z"
       id="path21"
       inkscape:connector-curvature="0" /><path
       d="m 388.1,383.4 c 2.9,-1 5.3,-4.1 5.3,-8.2 0,-7 -4.7,-10.6 -12.8,-10.6 H 362 v 38.9 h 19.6 c 8.1,0 12.8,-3.9 12.8,-10.8 0,-4.5 -2.7,-8.1 -6.3,-9.3 z m -12.1,9.1 c -4.7,0 -8.6,-3.8 -8.6,-8.6 0,-4.7 3.8,-8.6 8.6,-8.6 4.8,0 8.6,3.8 8.6,8.6 -0.1,4.7 -3.9,8.6 -8.6,8.6 z"
       id="path23"
       inkscape:connector-curvature="0" /><path
       d="m 612.9,386.1 c -0.6,-1.2 -1.5,-2.3 -2.6,-3.1 -1.1,-0.9 -2.3,-1.5 -3.6,-2.1 -1.3,-0.5 -2.7,-1 -4.2,-1.3 -2.7,-0.7 -5.2,-1.4 -7.3,-2 -1,-0.4 -1.8,-0.8 -2.5,-1.2 -0.7,-0.4 -1,-1 -1.1,-1.6 0,-0.5 0.2,-1 0.5,-1.3 0.3,-0.3 0.6,-0.6 1,-0.8 0.9,-0.3 1.8,-0.5 2.6,-0.5 1.2,0 2.4,0.3 3.4,0.9 1,0.6 1.5,1.6 1.4,3.1 h 10.9 c -0.3,-4.6 -1.9,-7.9 -4.8,-9.9 -1.6,-1 -3.3,-1.6 -5.2,-2.1 -0.6,2.1 -2.6,3.7 -4.9,3.7 -2.4,0 -4.4,-1.6 -5,-3.9 -2.2,0.5 -4.2,1.3 -6,2.5 -3.1,2 -4.6,5.3 -4.7,9.8 0,1.9 0.4,3.5 1.2,4.7 0.8,1.3 1.8,2.3 3.1,3.1 1.2,0.8 2.6,1.4 4.2,2 1.5,0.5 3,1 4.5,1.4 3.3,0.9 5.5,1.6 6.7,2.1 1.1,0.6 1.7,1.4 1.6,2.3 0,1.4 -0.6,2.3 -1.7,2.8 -1.1,0.5 -2.3,0.7 -3.3,0.7 -1.2,0 -2.3,-0.2 -3.4,-0.6 -1.2,-0.4 -2,-1.1 -2.5,-2.2 -0.3,-0.7 -0.4,-1.6 -0.4,-2.5 h -11.5 c 0.1,3.1 0.8,5.5 2.1,7.3 1.3,1.9 2.9,3.3 4.7,4.2 1.8,0.9 3.6,1.5 5.4,1.8 0.6,-2.2 2.6,-3.8 5,-3.8 2.4,0 4.4,1.6 5,3.8 2.4,-0.5 4.6,-1.3 6.7,-2.4 3.6,-2 5.4,-5.4 5.5,-10.4 0.1,-1.6 -0.2,-3.1 -0.8,-4.5 z"
       id="path25"
       inkscape:connector-curvature="0"
       style="fill:#1d1d1b" /><polygon
       points="524.6,375.5 520.5,375.5 524.6,369.8 520.5,369.8 524.6,364.1 512.3,364.1 512.3,403.2 541.5,403.2 541.5,392.6 520.5,392.6 524.6,386.9 520.5,386.9 524.6,381.2 520.5,381.2 "
       id="polygon27" /></g></svg>